<?xml version="1.0" encoding="utf-8"?>
<svg version="1.1" xmlns:xlink="http://www.w3.org/1999/xlink" width="45px" height="24px" xmlns="http://www.w3.org/2000/svg">
  <defs>
    <mask fill="white" id="clip74">
      <path d="M 0 24  L 0 0  L 28.1593406593402 0  L 32.2802197802193 0  L 45 0  L 45 24  L 32.2802197802193 24  L 28.1593406593402 24  L 0 24  Z " fill-rule="evenodd" />
    </mask>
  </defs>
  <g transform="matrix(1 0 0 1 -427 -127 )">
    <path d="M 0 24  L 0 0  L 28.1593406593402 0  L 32.2802197802193 0  L 45 0  L 45 24  L 32.2802197802193 24  L 28.1593406593402 24  L 0 24  Z " fill-rule="nonzero" fill="#ffffff" stroke="none" transform="matrix(1 0 0 1 427 127 )" />
    <path d="M 0 24  L 0 0  L 28.1593406593402 0  L 32.2802197802193 0  L 45 0  L 45 24  L 32.2802197802193 24  L 28.1593406593402 24  L 0 24  Z " stroke-width="2" stroke="#797979" fill="none" stroke-opacity="0.803921568627451" transform="matrix(1 0 0 1 427 127 )" mask="url(#clip74)" />
  </g>
</svg>