<?xml version="1.0" encoding="utf-8"?>
<svg version="1.1" xmlns:xlink="http://www.w3.org/1999/xlink" width="180px" height="76px" preserveAspectRatio="xMinYMid meet" viewBox="1138 215  180 74" xmlns="http://www.w3.org/2000/svg">
  <g transform="matrix(-0.882947592858927 0.469471562785891 -0.46947156278589 -0.882947592858927 2430.56647785281 -102.008285700625 )">
    <path d="M 0.0494071386088078 95.3186764379293  L 71.660049254603 86.1105377823648  L 132.88615043333 61.8931315216141  L 185.268481441794 86.1105377823648  L 241.732552528843 95.5263157894737  L 289.352853445631 86.1105377823648  L 353.236337488017 109.724310776942  L 413.165635829276 55.2564956695536  L 467.588836877033 35.6576080724692  L 517.930297846209 55.2564956695536  L 573.033788907062 17.9990826740058  L 635.620470111985 91.1558307533545  L 688.683091133546 55.2564956695536  L 745.827452233691 91.1558307533545  L 793.198672281764 95.5263157894737  L 852.632984289913 86.1105377823648  L 904.335025285281 44.2346061231505  L 963.520256424718 17.9990826740058  L 1026.0674565128 55.2564956695536  L 1094.81622895243 0  L 1140.39565982993 72.488246760694  L 1193.45828085149 77.5335397316834  L 1242.43916179447 55.2564956695536  L 1300.94410292081 95.5263157894737  L 1356.907067525 35.6576080724692  " stroke-width="2" stroke="#70b603" fill="none" transform="matrix(1 0 0 1 64 203 )" />
  </g>
</svg>