<?xml version="1.0" encoding="utf-8"?>
<svg version="1.1" xmlns:xlink="http://www.w3.org/1999/xlink" width="70px" height="6px" preserveAspectRatio="xMinYMid meet" viewBox="690 239  70 4" xmlns="http://www.w3.org/2000/svg">
  <g transform="matrix(0.777145961456973 0.629320391049835 -0.629320391049833 0.777145961456969 313.235392186704 -402.54946022226 )">
    <path d="M 0.0421253200960874 80.4390596745019  L 57.2398849472699 114  L 113.300866655389 52.2313725490193  L 161.957813998082 38  L 205.442377756473 38  L 247.152061361461 0  L 301.174976030682 92.5959183673468  L 353.644870565679 46.6307414104882  L 399.791754554172 80.4390596745019  L 440.613998082455 65.4302521008414  L 488.577814123413 15.1893557422973  L 541.940223964308 76.9260504201685  L 586.154170661555 102.274285714287  L 636.738255033557 92.5959183673468  L 686.434899328862 52.2313725490193  L 727.257142857145 114  L 771.050570563795 37.3294117647055  L 821.325790987537 76.9260504201685  L 871.90987535954 61  L 930.480920421863 61  L 972.319659854994 61.172549019609  L 1020.53790295962 114  L 1059.32358894341 46.6307414104882  L 1110.73673042768 15.1893557422973  L 1157 4.21826697892223  " stroke-width="2" stroke="#ffff00" fill="none" transform="matrix(1 0 0 1 64 169 )" />
  </g>
</svg>