<?xml version="1.0" encoding="utf-8"?>
<svg version="1.1" xmlns:xlink="http://www.w3.org/1999/xlink" width="122px" height="44px" preserveAspectRatio="xMinYMid meet" viewBox="466 135  122 42" xmlns="http://www.w3.org/2000/svg">
  <g transform="matrix(-0.945518575599316 0.325568154457156 -0.325568154457156 -0.945518575599318 1076.07692143616 131.926480394572 )">
    <path d="M 0.0490794567757354 80.4390596745019  L 66.6891658676922 114  L 132.004812663322 52.2313725490193  L 188.694151486098 38  L 239.357238734421 38  L 287.952444870569 0  L 350.893576222437 92.5959183673468  L 412.025311601154 46.6307414104882  L 465.790220517739 80.4390596745019  L 513.351486097796 65.4302521008414  L 569.233270041798 15.1893557422973  L 631.404859035339 76.9260504201685  L 682.917737296263 102.274285714287  L 741.852348993289 92.5959183673468  L 799.753020134232 52.2313725490193  L 847.314285714289 114  L 898.337224822814 37.3294117647055  L 956.911984659637 76.9260504201685  L 1015.84659635666 61  L 1084.08667305849 61  L 1132.83223983106 61.172549019609  L 1189.01045219496 114  L 1234.19896101617 46.6307414104882  L 1294.09949232196 15.1893557422973  L 1348 4.21826697892223  " stroke-width="2" stroke="#7f7f7f" fill="none" transform="matrix(1 0 0 1 64 93 )" />
  </g>
</svg>