<?xml version="1.0" encoding="utf-8"?>
<svg version="1.1" xmlns:xlink="http://www.w3.org/1999/xlink" width="110px" height="6px" preserveAspectRatio="xMinYMid meet" viewBox="888 215  110 4" xmlns="http://www.w3.org/2000/svg">
  <g transform="matrix(0.484809620246347 0.874619707139403 -0.874619707139391 0.484809620246342 675.617004556943 -712.970071425913 )">
    <path d="M 0.0494071386088078 95.9623869801076  L 67.1344199424765 136  L 132.88615043333 62.3111111111107  L 189.953978906999 45  L 240.955321188879 45  L 289.874976030685 0  L 353.236337488017 110.465306122449  L 414.776222435287 55.6296564195298  L 468.900095877279 95.9623869801076  L 516.778906999042 78.0571428571441  L 573.033788907062 18.1206349206354  L 635.620470111985 91.771428571429  L 687.477277085333 122.011428571431  L 746.805369127517 110.465306122449  L 805.092617449668 62.3111111111107  L 852.971428571431 136  L 904.335025285281 44.5333333333328  L 963.300862895495 91.771428571429  L 1022.62895493768 73  L 1091.32464046021 73  L 1140.39565982993 73  L 1196.94894927935 136  L 1242.43916179447 55.6296564195298  L 1302.73962246357 18.1206349206354  L 1357 5.03231850117038  " stroke-width="2" stroke="#f59a23" fill="none" transform="matrix(1 0 0 1 64 126 )" />
  </g>
</svg>