<?xml version="1.0" encoding="utf-8"?>
<svg version="1.1" xmlns:xlink="http://www.w3.org/1999/xlink" width="8px" height="4px" xmlns="http://www.w3.org/2000/svg">
  <g transform="matrix(1 0 0 1 -140 -847 )">
    <path d="M 7.8515625 3.86805555555554  C 7.95052083333334 3.78009259259261  8 3.67592592592598  8 3.55555555555554  C 8 3.43518518518522  7.95052083333334 3.33101851851848  7.8515625 3.24305555555554  L 4.3515625 0.131944444444457  C 4.25260416666666 0.0439814814815236  4.13541666666666 0  4 0  C 3.86458333333334 0  3.74739583333334 0.0439814814815236  3.6484375 0.131944444444457  L 0.1484375 3.24305555555554  C 0.0494791666666714 3.33101851851848  0 3.43518518518522  0 3.55555555555554  C 0 3.67592592592598  0.0494791666666714 3.78009259259261  0.1484375 3.86805555555554  C 0.247395833333329 3.95601851851848  0.364583333333329 4  0.5 4  L 7.5 4  C 7.63541666666666 4  7.75260416666666 3.95601851851848  7.8515625 3.86805555555554  Z " fill-rule="nonzero" fill="#2eba07" stroke="none" transform="matrix(1 0 0 1 140 847 )" />
  </g>
</svg>