<?xml version="1.0" encoding="utf-8"?>
<svg version="1.1" xmlns:xlink="http://www.w3.org/1999/xlink" width="304px" height="63px" xmlns="http://www.w3.org/2000/svg">
  <g transform="matrix(1 0 0 1 -119 -873 )">
    <path d="M 301.928729736576 61.7897701149427  L 0.551048632218766 61.7897701149427  C 0.551048632218766 61.7897701149427  1.40277777777771 10.5471264367816  0.841666666666697 10.5471264367816  C 33.3524071558687 5.62462584598325  30.861111111111 4.27586206896558  54.9888888888888 4.27586206896558  C 79.1166666666668 4.27586206896558  83.6547826287188 19.4488888888891  104.443181818182 20  C 125.231581007645 20.5511111111114  131.006907244754 -0.894271780960025  160.477777777778 0.285057471264281  C 176.861710570753 0.940689655172264  198.337428233705 23.7731143951833  220.27619047619 24.4334975369457  C 242.214952718676 25.093880678708  247.2794495103 10.0530268199232  264.042857142857 9.406896551724  C 280.806264775414 8.76076628352484  282.927699679163 25.6673891625614  301.928729736576 26.2660098522169  C 302.566588568051 26.2375041050905  301.928729736576 61.7897701149427  301.928729736576 61.7897701149427  Z " fill-rule="nonzero" fill="#330099" stroke="none" transform="matrix(1 0 0 1 119 873 )" />
  </g>
</svg>