<?xml version="1.0" encoding="utf-8"?>
<svg version="1.1" xmlns:xlink="http://www.w3.org/1999/xlink" width="303px" height="56px" xmlns="http://www.w3.org/2000/svg">
  <g transform="matrix(1 0 0 1 -120 -674 )">
    <path d="M 300.932265281999 54.7897701149427  L 0.549229989868209 54.7897701149427  C 0.549229989868209 54.7897701149427  1.39814814814808 3.54712643678158  0.838888888888931 3.54712643678158  C 33.2423332048593 -1.37537415401675  28.3744933612858 7  52.422641509434 7  C 76.4707896575824 7  83.3786942372049 12.4488888888891  104.098484848485 13  C 124.818275459765 13.5511111111114  134.732053443454 -0.179329252224306  164.105660377358 1  C 180.435520784878 1.65563218390798  198.080812724751 8.3396168582376  219.947169811321 9  C 241.81352689789 9.6603831417624  246.463345716537 3.05302681992316  263.171428571429 2.406896551724  C 279.87951142632 1.76076628352484  281.993944894743 18.6673891625614  300.932265281999 19.2660098522169  C 301.568018968817 19.2375041050905  300.932265281999 54.7897701149427  300.932265281999 54.7897701149427  Z " fill-rule="nonzero" fill="#330099" stroke="none" transform="matrix(1 0 0 1 120 674 )" />
  </g>
</svg>