<?xml version="1.0" encoding="utf-8"?>
<svg version="1.1" xmlns:xlink="http://www.w3.org/1999/xlink" width="303px" height="49px" xmlns="http://www.w3.org/2000/svg">
  <g transform="matrix(1 0 0 1 -120 -1089 )">
    <path d="M 300.932265281999 47.7897701149427  L 0.549229989868209 47.7897701149427  C 0.549229989868209 47.7897701149427  3.97812718378745 17  3.4188679245283 17  C 35.8223122404987 12.0774994092017  35.3283018867924 2  61.5396226415094 4  C 87.7509433962264 6  81.8462471245691 9.88238642583474  102.566037735849 10.4334975369457  C 123.285828347129 10.984608648057  124.475449669869 -0.179329252224306  153.849056603774 1  C 170.178917011293 1.65563218390798  185.544963668147 9.77311439518326  207.411320754717 10.4334975369457  C 229.277677841287 11.093880678708  234.008898277184 1.64613026819916  250.716981132075 1  C 267.425063986967 0.353869731800842  281.993944894743 11.6673891625614  300.932265281999 12.2660098522169  C 301.568018968817 12.2375041050905  300.932265281999 47.7897701149427  300.932265281999 47.7897701149427  Z " fill-rule="nonzero" fill="#330099" stroke="none" transform="matrix(1 0 0 1 120 1089 )" />
  </g>
</svg>