<?xml version="1.0" encoding="utf-8"?>
<svg version="1.1" xmlns:xlink="http://www.w3.org/1999/xlink" width="37px" height="33px" xmlns="http://www.w3.org/2000/svg">
  <g transform="matrix(1 0 0 1 -113 -406 )">
    <path d="M 113 406  L 150 406  L 150 439  L 113 439  L 113 406  " fill-rule="nonzero" fill="#cccccc" stroke="none" />
    <path d="M 115 408  L 148 408  L 148 437  L 115 437  L 115 408  " fill-rule="nonzero" fill="#ffffff" stroke="none" />
    <path d="M 134.715 415.9  C 133.329 415.9  132.24 414.811  132.24 413.425  C 132.24 412.039  133.329 410.95  134.715 410.95  C 136.101 410.95  137.19 412.039  137.19 413.425  C 137.19 414.811  136.101 415.9  134.715 415.9  " fill-rule="nonzero" fill="#cccccc" stroke="none" />
    <path d="M 116 436  L 116 421.15  L 123.75 414.4  L 134.6 421.551351351351  L 140.8 418.45  L 147 421.551351351351  L 147 436  L 116 436  " fill-rule="nonzero" fill="#169bd5" stroke="none" />
  </g>
</svg>