<?xml version="1.0" encoding="utf-8"?>
<svg version="1.1" xmlns:xlink="http://www.w3.org/1999/xlink" width="81px" height="81px" xmlns="http://www.w3.org/2000/svg">
  <g transform="matrix(1 0 0 1 -817 -572 )">
    <path d="M 857.5 572  C 880.18 572  898 589.82  898 612.5  C 898 635.18  880.18 653  857.5 653  C 834.82 653  817 635.18  817 612.5  C 817 589.82  834.82 572  857.5 572  Z " fill-rule="nonzero" fill="#7f7f7f" stroke="none" />
    <path d="M 857.5 572.5  C 879.9 572.5  897.5 590.1  897.5 612.5  C 897.5 634.9  879.9 652.5  857.5 652.5  C 835.1 652.5  817.5 634.9  817.5 612.5  C 817.5 590.1  835.1 572.5  857.5 572.5  Z " stroke-width="1" stroke="#797979" fill="none" />
  </g>
</svg>