<?xml version="1.0" encoding="utf-8"?>
<svg version="1.1" xmlns:xlink="http://www.w3.org/1999/xlink" width="75px" height="75px" xmlns="http://www.w3.org/2000/svg">
  <g transform="matrix(1 0 0 1 -1194 -571 )">
    <path d="M 1231.5 571  C 1252.5 571  1269 587.5  1269 608.5  C 1269 629.5  1252.5 646  1231.5 646  C 1210.5 646  1194 629.5  1194 608.5  C 1194 587.5  1210.5 571  1231.5 571  Z " fill-rule="nonzero" fill="#7f7f7f" stroke="none" />
    <path d="M 1231.5 571.5  C 1252.22 571.5  1268.5 587.78  1268.5 608.5  C 1268.5 629.22  1252.22 645.5  1231.5 645.5  C 1210.78 645.5  1194.5 629.22  1194.5 608.5  C 1194.5 587.78  1210.78 571.5  1231.5 571.5  Z " stroke-width="1" stroke="#797979" fill="none" />
  </g>
</svg>