<?xml version="1.0" encoding="utf-8"?>
<svg version="1.1" xmlns:xlink="http://www.w3.org/1999/xlink" width="403px" height="807px" xmlns="http://www.w3.org/2000/svg">
  <g transform="matrix(1 0 0 1 -1370 -73 )">
    <path d="M 1371 77  A 3 3 0 0 1 1374 74 L 1769 74  A 3 3 0 0 1 1772 77 L 1772 876  A 3 3 0 0 1 1769 879 L 1374 879  A 3 3 0 0 1 1371 876 L 1371 77  Z " fill-rule="nonzero" fill="#ff3399" stroke="none" fill-opacity="0.0980392156862745" />
    <path d="M 1370.5 77  A 3.5 3.5 0 0 1 1374 73.5 L 1769 73.5  A 3.5 3.5 0 0 1 1772.5 77 L 1772.5 876  A 3.5 3.5 0 0 1 1769 879.5 L 1374 879.5  A 3.5 3.5 0 0 1 1370.5 876 L 1370.5 77  Z " stroke-width="1" stroke-dasharray="9,4" stroke="#ff3399" fill="none" stroke-dashoffset="0.5" />
  </g>
</svg>