<?xml version="1.0" encoding="utf-8"?>
<svg version="1.1" xmlns:xlink="http://www.w3.org/1999/xlink" width="403px" height="710px" xmlns="http://www.w3.org/2000/svg">
  <g transform="matrix(1 0 0 1 -1835 -126 )">
    <path d="M 1836 130  A 3 3 0 0 1 1839 127 L 2234 127  A 3 3 0 0 1 2237 130 L 2237 832  A 3 3 0 0 1 2234 835 L 1839 835  A 3 3 0 0 1 1836 832 L 1836 130  Z " fill-rule="nonzero" fill="#ff3399" stroke="none" fill-opacity="0.0980392156862745" />
    <path d="M 1835.5 130  A 3.5 3.5 0 0 1 1839 126.5 L 2234 126.5  A 3.5 3.5 0 0 1 2237.5 130 L 2237.5 832  A 3.5 3.5 0 0 1 2234 835.5 L 1839 835.5  A 3.5 3.5 0 0 1 1835.5 832 L 1835.5 130  Z " stroke-width="1" stroke-dasharray="9,4" stroke="#ff3399" fill="none" stroke-dashoffset="0.5" />
  </g>
</svg>