<?xml version="1.0" encoding="utf-8"?>
<svg version="1.1" xmlns:xlink="http://www.w3.org/1999/xlink" width="1332px" height="47px" xmlns="http://www.w3.org/2000/svg">
  <g transform="matrix(1 0 0 1 -80 -215 )">
    <path d="M 0 44  L 59.2862453531598 34.958904109589  L 116.925650557621 24.1095890410959  L 174.565055762082 19.8904109589041  L 232.733400513164 14.2620689655172  L 289.843866171004 11.7534246575342  L 347.483271375465 7.23287671232877  L 406.05095043649 0  L 461.115241635688 6.02739726027397  L 520.401486988848 14.7671232876712  L 578.040892193309 25.9178082191781  L 635.68029739777 25.013698630137  L 693.319702602231 37.3698630136986  L 750.959107806692 22.3013698630137  L 808.598513011152 27.7260273972603  L 866.237918215613 18.0821917808219  L 925.524163568773 19.5890410958904  L 979.869888475836 15.3698630136986  L 1039.156133829 11.4520547945205  L 1098.44237918216 12.958904109589  L 1154.43494423792 14.7671232876712  L 1213.72118959108 8.73972602739726  L 1269.71375464684 23.8082191780822  L 1329 16.2739726027397  " stroke-width="2" stroke="#e3935e" fill="none" transform="matrix(1 0 0 1 81 216 )" />
  </g>
</svg>