<?xml version="1.0" encoding="utf-8"?>
<svg version="1.1" xmlns:xlink="http://www.w3.org/1999/xlink" width="1332px" height="16px" xmlns="http://www.w3.org/2000/svg">
  <g transform="matrix(1 0 0 1 -83 -259 )">
    <path d="M 0 13  L 59.2862453531598 10.3287671232877  L 116.925650557621 7.12328767123288  L 174.565055762082 5.87671232876712  L 232.733400513164 4.21379310344827  L 289.843866171004 3.47260273972603  L 347.483271375465 2.13698630136986  L 406.05095043649 0  L 461.115241635688 1.78082191780822  L 520.401486988848 4.36301369863014  L 578.040892193309 7.65753424657534  L 635.68029739777 7.39041095890411  L 693.319702602231 11.041095890411  L 750.959107806692 6.58904109589041  L 808.598513011152 8.19178082191781  L 866.237918215613 5.34246575342466  L 925.524163568773 5.78767123287671  L 979.869888475836 4.54109589041096  L 1039.156133829 3.38356164383562  L 1098.44237918216 3.82876712328767  L 1154.43494423792 4.36301369863014  L 1213.72118959108 2.58219178082192  L 1269.71375464684 7.03424657534247  L 1329 4.80821917808219  " stroke-width="2" stroke="#9570e4" fill="none" transform="matrix(1 0 0 1 84 260 )" />
  </g>
</svg>