<?xml version="1.0" encoding="utf-8"?>
<svg version="1.1" xmlns:xlink="http://www.w3.org/1999/xlink" width="70px" height="6px" preserveAspectRatio="xMinYMid meet" viewBox="134 117  70 4" xmlns="http://www.w3.org/2000/svg">
  <g transform="matrix(0.891006524188367 0.453990499739548 -0.453990499739548 0.89100652418837 72.4447668811721 -63.7541708343996 )">
    <path d="M 0 120  L 59.2862453531598 95.3424657534246  L 116.925650557621 65.7534246575342  L 174.565055762082 54.2465753424658  L 232.733400513164 38.8965517241379  L 289.843866171004 32.0547945205479  L 347.483271375465 19.7260273972603  L 406.05095043649 0  L 461.115241635688 16.4383561643836  L 520.401486988848 40.2739726027397  L 578.040892193309 70.6849315068493  L 635.68029739777 68.2191780821918  L 693.319702602231 101.917808219178  L 750.959107806692 60.8219178082192  L 808.598513011152 75.6164383561644  L 866.237918215613 49.3150684931507  L 925.524163568773 53.4246575342466  L 979.869888475836 41.9178082191781  L 1039.156133829 31.2328767123288  L 1098.44237918216 35.3424657534247  L 1154.43494423792 40.2739726027397  L 1213.72118959108 23.8356164383562  L 1269.71375464684 64.9315068493151  L 1329 44.3835616438356  " stroke-width="2" stroke="#7ecf51" fill="none" transform="matrix(1 0 0 1 81 39 )" />
  </g>
</svg>