<?xml version="1.0" encoding="utf-8"?>
<svg version="1.1" xmlns:xlink="http://www.w3.org/1999/xlink" width="74px" height="6px" preserveAspectRatio="xMinYMid meet" viewBox="534 119  74 4" xmlns="http://www.w3.org/2000/svg">
  <g transform="matrix(0.874619707139399 -0.484809620246341 0.484809620246328 0.874619707139404 12.9301831735971 291.997308596793 )">
    <path d="M 0 165  L 59.2862453531598 131.095890410959  L 116.925650557621 90.4109589041096  L 174.565055762082 74.5890410958904  L 232.733400513164 53.4827586206896  L 289.843866171004 44.0753424657534  L 347.483271375465 27.1232876712329  L 406.05095043649 0  L 461.115241635688 22.6027397260274  L 520.401486988848 55.3767123287671  L 578.040892193309 97.1917808219178  L 635.68029739777 93.8013698630137  L 693.319702602231 140.13698630137  L 750.959107806692 83.6301369863014  L 808.598513011152 103.972602739726  L 866.237918215613 67.8082191780822  L 925.524163568773 73.458904109589  L 979.869888475836 57.6369863013699  L 1039.156133829 42.945205479452  L 1098.44237918216 48.5958904109589  L 1154.43494423792 55.3767123287671  L 1213.72118959108 32.7739726027397  L 1269.71375464684 89.2808219178082  L 1329 61.027397260274  " stroke-width="2" stroke="#61a4e8" fill="none" transform="matrix(1 0 0 1 81 82 )" />
  </g>
</svg>