<?xml version="1.0" encoding="utf-8"?>
<svg version="1.1" xmlns:xlink="http://www.w3.org/1999/xlink" width="8px" height="8px" xmlns="http://www.w3.org/2000/svg">
  <g transform="matrix(1 0 0 1 -642 -2 )">
    <path d="M 646 2  C 648.24 2  650 3.76  650 6  C 650 8.24  648.24 10  646 10  C 643.76 10  642 8.24  642 6  C 642 3.76  643.76 2  646 2  Z " fill-rule="nonzero" fill="#ffffff" stroke="none" />
    <path d="M 646 2.5  C 647.96 2.5  649.5 4.04  649.5 6  C 649.5 7.96  647.96 9.5  646 9.5  C 644.04 9.5  642.5 7.96  642.5 6  C 642.5 4.04  644.04 2.5  646 2.5  Z " stroke-width="1" stroke="#f59a23" fill="none" />
  </g>
</svg>