<?xml version="1.0" encoding="utf-8"?>
<svg version="1.1" xmlns:xlink="http://www.w3.org/1999/xlink" width="1499px" height="158px" xmlns="http://www.w3.org/2000/svg">
  <g transform="matrix(1 0 0 1 -63 -245 )">
    <path d="M 1498 157  L 1.42197262755117 157  C 3.02748304229864 157  -2.46593273769383 129.808421525657  1.42197262755117 129.950627004287  C 5.30987799279621 130.092832482917  93.8746692992083 124.540752405144  145.879311177015 115.073471856645  C 197.883953054822 105.606191308145  226.775420764715 105.606191308145  273.001769100544 89.3765675107171  C 319.228117436372 73.1469437132892  365.454465772201 64.8873589680237  411.680814108029 47.3776529440859  C 457.907162443858 29.8679469201482  515.690097863644 24.4580723210056  544.581565573536 17.6957290720773  C 573.473033283429 10.933385823149  642.812555787172 4.17104257422071  689.038904123001 2.71669673612096  C 735.265252458829 1.26235089802121  746.821839542786 -2.59130067470759  810.38306850455 2.71669673612096  C 873.944297466315 8.02469414694949  897.057471634229 13.6383231227203  954.840407054015 21.7531350214342  C 1012.6233424738 29.8679469201482  1018.40163601578 35.1330486727392  1087.74115851952 47.3776529440859  C 1157.08068102326 59.6222572154327  1197.52873581711 58.269788565647  1232.19849706899 63.6796631647896  C 1266.86825832086 69.0895377639322  1266.86825832086 63.6796631647896  1365.09924853449 81.2617556120032  C 1463.33023874813 98.8438480592167  1498 113.721003206859  1498 113.721003206859  C 1498 113.721003206859  1498 157  1498 157  Z " fill-rule="nonzero" fill="#61a5e8" stroke="none" transform="matrix(1 0 0 1 63 245 )" />
  </g>
</svg>