<?xml version="1.0" encoding="utf-8"?>
<svg version="1.1" xmlns:xlink="http://www.w3.org/1999/xlink" width="14px" height="15px" xmlns="http://www.w3.org/2000/svg">
  <g transform="matrix(1 0 0 1 -633 -269 )">
    <path d="M 640 270  C 643.36 270  646 272.86  646 276.5  C 646 280.14  643.36 283  640 283  C 636.64 283  634 280.14  634 276.5  C 634 272.86  636.64 270  640 270  Z " fill-rule="nonzero" fill="#ffffff" stroke="none" />
    <path d="M 640 270  C 643.36 270  646 272.86  646 276.5  C 646 280.14  643.36 283  640 283  C 636.64 283  634 280.14  634 276.5  C 634 272.86  636.64 270  640 270  Z " stroke-width="2" stroke="#7ecf51" fill="none" />
  </g>
</svg>