<?xml version="1.0" encoding="utf-8"?>
<svg version="1.1" xmlns:xlink="http://www.w3.org/1999/xlink" width="1499px" height="130px" xmlns="http://www.w3.org/2000/svg">
  <g transform="matrix(1 0 0 1 -63 -274 )">
    <path d="M 1498 129  L 1.42197262755117 129  C 3.02748304229864 129  -2.46593273769383 109.961434747101  1.42197262755117 110.103355458531  C 5.30987799279621 110.245276169962  93.8746692992083 107.40383480975  145.879311177015 97.9555125390158  C 197.883953054822 88.5071902682814  226.775420764715 91.2067109170627  273.001769100544 75.0095870243752  C 319.228117436372 58.8124631316878  371.232759314179 50.7139011853441  417.459107650008 39.9158185902191  C 463.685455985837 29.1177359950942  509.911804321665 29.1177359950942  556.138152657494 16.9698930755786  C 602.364500993322 4.82205015606302  637.034262245194 2.22420268600472  683.260610581022 0.772769182891152  C 729.486958916851 -0.678664320222397  752.600133084765 -0.475317962776513  816.161362046529 4.82205015606302  C 879.722591008293 10.1194182749026  897.057471634229 14.2703724267973  954.840407054015 22.3689343731411  C 1012.6233424738 30.4674963194848  1012.6233424738 30.3952548503922  1081.96286497754 42.6153392390004  C 1151.30238748129 54.8354236276085  1174.4155616492 50.7139011853441  1226.42020352701 56.1129424829066  C 1278.42484540481 61.511983780469  1295.75972603075 58.8124631316878  1365.09924853449 66.9110250780315  C 1434.43877103824 75.0095870243752  1498 93.9062315658439  1498 93.9062315658439  C 1498 93.9062315658439  1498 129  1498 129  Z " fill-rule="nonzero" fill="#7ecf51" stroke="none" transform="matrix(1 0 0 1 63 274 )" />
  </g>
</svg>