<?xml version="1.0" encoding="utf-8"?>
<svg version="1.1" xmlns:xlink="http://www.w3.org/1999/xlink" width="1494px" height="97px" xmlns="http://www.w3.org/2000/svg">
  <g transform="matrix(1 0 0 1 -67 -306 )">
    <path d="M 1487.22258257396 96  L 1.42271428149449 96  C 3.02906207743135 96  -2.46721888674018 85.1611885028734  1.42271428149449 85.3017964895103  C 5.31264744972918 85.4424044761473  99.7049385342642 75.9408684178319  145.955397006156 73.2663175402095  C 192.205855478048 70.5917666625871  232.675006640953 67.9172157849646  278.925465112844 61.2308385909086  C 325.175923584736 54.5444613968525  382.988996674601 50.5326350804189  423.458147837506 43.8462578863629  C 463.927299000411 37.1598806923068  492.833835545343 37.1598806923068  527.521679399262 29.1362280594396  C 562.209523253181 21.1125754265723  608.459981725072 14.4261982325163  683.616976741896 6.40254559964903  C 758.77397175872 -1.62110703321821  752.992664449734 -1.62110703321821  810.805737539598 3.72799472202663  C 868.618810629463 9.07709647727146  891.744039865409 10.4143719160827  949.557112955273 18.4380245489499  C 1007.37018604514 26.4616771818172  1018.93280066311 35.8226052534956  1082.52718106196 39.8344315699292  C 1146.12156146081 43.8462578863629  1175.02809800575 41.1717070087404  1221.27855647764 45.1835333251741  C 1267.52901494953 49.1953596416077  1284.87293687649 49.1953596416077  1354.24862458433 53.2071859580413  C 1423.62431229216 57.2190122744749  1493 70.5917666625871  1493 70.5917666625871  C 1493 70.5917666625871  1487.22258257396 96  1487.22258257396 96  Z " fill-rule="nonzero" fill="#eecb5f" stroke="none" transform="matrix(1 0 0 1 67 306 )" />
  </g>
</svg>