<?xml version="1.0" encoding="utf-8"?>
<svg version="1.1" xmlns:xlink="http://www.w3.org/1999/xlink" width="14px" height="15px" xmlns="http://www.w3.org/2000/svg">
  <g transform="matrix(1 0 0 1 -633 -241 )">
    <path d="M 640 242  C 643.36 242  646 244.86  646 248.5  C 646 252.14  643.36 255  640 255  C 636.64 255  634 252.14  634 248.5  C 634 244.86  636.64 242  640 242  Z " fill-rule="nonzero" fill="#ffffff" stroke="none" />
    <path d="M 640 242  C 643.36 242  646 244.86  646 248.5  C 646 252.14  643.36 255  640 255  C 636.64 255  634 252.14  634 248.5  C 634 244.86  636.64 242  640 242  Z " stroke-width="2" stroke="#61a5e8" fill="none" />
  </g>
</svg>