<?xml version="1.0" encoding="utf-8"?>
<svg version="1.1" xmlns:xlink="http://www.w3.org/1999/xlink" width="403px" height="1694px" xmlns="http://www.w3.org/2000/svg">
  <g transform="matrix(1 0 0 1 -1801 -48 )">
    <path d="M 1802 52  A 3 3 0 0 1 1805 49 L 2200 49  A 3 3 0 0 1 2203 52 L 2203 1738  A 3 3 0 0 1 2200 1741 L 1805 1741  A 3 3 0 0 1 1802 1738 L 1802 52  Z " fill-rule="nonzero" fill="#ff3399" stroke="none" fill-opacity="0.0980392156862745" />
    <path d="M 1801.5 52  A 3.5 3.5 0 0 1 1805 48.5 L 2200 48.5  A 3.5 3.5 0 0 1 2203.5 52 L 2203.5 1738  A 3.5 3.5 0 0 1 2200 1741.5 L 1805 1741.5  A 3.5 3.5 0 0 1 1801.5 1738 L 1801.5 52  Z " stroke-width="1" stroke-dasharray="9,4" stroke="#ff3399" fill="none" stroke-dashoffset="0.5" />
  </g>
</svg>