<?xml version="1.0" encoding="utf-8"?>
<svg version="1.1" xmlns:xlink="http://www.w3.org/1999/xlink" width="1647px" height="31px" xmlns="http://www.w3.org/2000/svg">
  <defs>
    <linearGradient gradientUnits="userSpaceOnUse" x1="823.5" y1="0" x2="823.5" y2="31" id="LinearGradient58">
      <stop id="Stop59" stop-color="#168a97" offset="0" />
      <stop id="Stop60" stop-color="#047d8a" offset="1" />
    </linearGradient>
    <mask fill="white" id="clip61">
      <path d="M 0 31  L 0 0  L 183.912263210369 0  L 1647 0  L 1647 31  L 0 31  Z " fill-rule="evenodd" />
    </mask>
  </defs>
  <g transform="matrix(1 0 0 1 0 -655 )">
    <path d="M 0 31  L 0 0  L 183.912263210369 0  L 1647 0  L 1647 31  L 0 31  Z " fill-rule="nonzero" fill="url(#LinearGradient58)" stroke="none" transform="matrix(1 0 0 1 0 655 )" />
    <path d="M 0 31  L 0 0  L 183.912263210369 0  L 1647 0  L 1647 31  L 0 31  Z " stroke-width="2" stroke="#797979" fill="none" transform="matrix(1 0 0 1 0 655 )" mask="url(#clip61)" />
  </g>
</svg>