<?xml version="1.0" encoding="utf-8"?>
<svg version="1.1" xmlns:xlink="http://www.w3.org/1999/xlink" width="134px" height="28px" xmlns="http://www.w3.org/2000/svg">
  <defs>
    <mask fill="white" id="clip57">
      <path d="M 0 23  L 0 5  C 0 2.2  2.2 0  5 0  L 97.3809523809524 0  L 129 0  C 131.8 0  134 2.2  134 5  L 134 23  C 134 25.8  131.8 28  129 28  L 5 28  C 2.2 28  0 25.8  0 23  Z " fill-rule="evenodd" />
    </mask>
  </defs>
  <g>
    <path d="M 0 23  L 0 5  C 0 2.2  2.2 0  5 0  L 97.3809523809524 0  L 129 0  C 131.8 0  134 2.2  134 5  L 134 23  C 134 25.8  131.8 28  129 28  L 5 28  C 2.2 28  0 25.8  0 23  Z " fill-rule="nonzero" fill="#168a97" stroke="none" />
    <path d="M 0 23  L 0 5  C 0 2.2  2.2 0  5 0  L 97.3809523809524 0  L 129 0  C 131.8 0  134 2.2  134 5  L 134 23  C 134 25.8  131.8 28  129 28  L 5 28  C 2.2 28  0 25.8  0 23  Z " stroke-width="2" stroke="#797979" fill="none" mask="url(#clip57)" />
  </g>
</svg>