<?xml version="1.0" encoding="utf-8"?>
<svg version="1.1" xmlns:xlink="http://www.w3.org/1999/xlink" width="403px" height="1347px" xmlns="http://www.w3.org/2000/svg">
  <g transform="matrix(1 0 0 1 -1781 -46 )">
    <path d="M 1782 50  A 3 3 0 0 1 1785 47 L 2180 47  A 3 3 0 0 1 2183 50 L 2183 1389  A 3 3 0 0 1 2180 1392 L 1785 1392  A 3 3 0 0 1 1782 1389 L 1782 50  Z " fill-rule="nonzero" fill="#ff3399" stroke="none" fill-opacity="0.0980392156862745" />
    <path d="M 1781.5 50  A 3.5 3.5 0 0 1 1785 46.5 L 2180 46.5  A 3.5 3.5 0 0 1 2183.5 50 L 2183.5 1389  A 3.5 3.5 0 0 1 2180 1392.5 L 1785 1392.5  A 3.5 3.5 0 0 1 1781.5 1389 L 1781.5 50  Z " stroke-width="1" stroke-dasharray="9,4" stroke="#ff3399" fill="none" stroke-dashoffset="0.5" />
  </g>
</svg>