<?xml version="1.0" encoding="utf-8"?>
<svg version="1.1" xmlns:xlink="http://www.w3.org/1999/xlink" width="182px" height="24px" xmlns="http://www.w3.org/2000/svg">
  <defs>
    <mask fill="white" id="clip56">
      <path d="M 0 24  L 0 0  L 113.888888888887 0  L 130.555555555554 0  L 182 0  L 182 24  L 130.555555555554 24  L 113.888888888887 24  L 0 24  Z " fill-rule="evenodd" />
    </mask>
  </defs>
  <g transform="matrix(1 0 0 1 -1233 -73 )">
    <path d="M 0 24  L 0 0  L 113.888888888887 0  L 130.555555555554 0  L 182 0  L 182 24  L 130.555555555554 24  L 113.888888888887 24  L 0 24  Z " fill-rule="nonzero" fill="#ffffff" stroke="none" transform="matrix(1 0 0 1 1233 73 )" />
    <path d="M 0 24  L 0 0  L 113.888888888887 0  L 130.555555555554 0  L 182 0  L 182 24  L 130.555555555554 24  L 113.888888888887 24  L 0 24  Z " stroke-width="2" stroke="#797979" fill="none" stroke-opacity="0.803921568627451" transform="matrix(1 0 0 1 1233 73 )" mask="url(#clip56)" />
  </g>
</svg>