<?xml version="1.0" encoding="utf-8"?>
<svg version="1.1" xmlns:xlink="http://www.w3.org/1999/xlink" width="1433px" height="46px" xmlns="http://www.w3.org/2000/svg">
  <g transform="matrix(1 0 0 1 -145 -2259 )">
    <path d="M 1431.48936170213 22.5  L 0.638297872340445 44.808510638298  L 44.2553191489362 22.4680851063831  L 198.510638297872 0.127659574468225  L 388.936170212766 0.5  L 527.234042553192 0.5  L 671.914893617021 45  L 794.255319148936 44.5  L 1077.23404255319 44.5  L 1381.48936170213 22.5  L 1431.48936170213 22.5  Z " fill-rule="nonzero" fill="#ffffff" stroke="none" transform="matrix(1 0 0 1 145 2259 )" />
    <path d="M 0.638297872340445 44.808510638298  L 44.2553191489362 22.4680851063831  L 198.510638297872 0.127659574468225  L 388.936170212766 0.5  L 527.234042553192 0.5  L 671.914893617021 45  L 794.255319148936 44.5  L 1077.23404255319 44.5  L 1381.48936170213 22.5  L 1431.48936170213 22.5  " stroke-width="1" stroke="#d9001b" fill="none" transform="matrix(1 0 0 1 145 2259 )" />
  </g>
</svg>