<?xml version="1.0" encoding="utf-8"?>
<svg version="1.1" xmlns:xlink="http://www.w3.org/1999/xlink" width="111px" height="40px" xmlns="http://www.w3.org/2000/svg">
  <defs>
    <mask fill="white" id="clip80">
      <path d="M 0 35  L 0 5  C 0 2.19999999999999  1.74428571428575 0  3.96428571428571 0  L 58.640934065934 0  L 107.035714285714 0  C 109.255714285714 0  111 2.19999999999999  111 5  L 111 18.8461538461538  L 111 35  C 111 37.8  109.255714285714 40  107.035714285714 40  L 59.4032967032967 40  L 3.96428571428571 40  C 1.74428571428575 40  0 37.8  0 35  Z " fill-rule="evenodd" />
    </mask>
  </defs>
  <g transform="matrix(1 0 0 1 -1296 -1525 )">
    <path d="M 0 35  L 0 5  C 0 2.19999999999999  1.74428571428575 0  3.96428571428571 0  L 58.640934065934 0  L 107.035714285714 0  C 109.255714285714 0  111 2.19999999999999  111 5  L 111 18.8461538461538  L 111 35  C 111 37.8  109.255714285714 40  107.035714285714 40  L 59.4032967032967 40  L 3.96428571428571 40  C 1.74428571428575 40  0 37.8  0 35  Z " fill-rule="nonzero" fill="#80ffff" stroke="none" transform="matrix(1 0 0 1 1296 1525 )" />
    <path d="M 0 35  L 0 5  C 0 2.19999999999999  1.74428571428575 0  3.96428571428571 0  L 58.640934065934 0  L 107.035714285714 0  C 109.255714285714 0  111 2.19999999999999  111 5  L 111 18.8461538461538  L 111 35  C 111 37.8  109.255714285714 40  107.035714285714 40  L 59.4032967032967 40  L 3.96428571428571 40  C 1.74428571428575 40  0 37.8  0 35  Z " stroke-width="2" stroke="#797979" fill="none" transform="matrix(1 0 0 1 1296 1525 )" mask="url(#clip80)" />
  </g>
</svg>