<?xml version="1.0" encoding="utf-8"?>
<svg version="1.1" xmlns:xlink="http://www.w3.org/1999/xlink" width="1842px" height="34px" xmlns="http://www.w3.org/2000/svg">
  <defs>
    <linearGradient gradientUnits="userSpaceOnUse" x1="921" y1="0" x2="921" y2="34" id="LinearGradient95">
      <stop id="Stop96" stop-color="#168a97" offset="0" />
      <stop id="Stop97" stop-color="#047d8a" offset="1" />
    </linearGradient>
    <mask fill="white" id="clip98">
      <path d="M 0 34  L 0 0  L 90.2266500622665 0  L 205.686939182453 0  L 1842 0  L 1842 34  L 0 34  Z " fill-rule="evenodd" />
    </mask>
  </defs>
  <g transform="matrix(1 0 0 1 -20 -316 )">
    <path d="M 0 34  L 0 0  L 90.2266500622665 0  L 205.686939182453 0  L 1842 0  L 1842 34  L 0 34  Z " fill-rule="nonzero" fill="url(#LinearGradient95)" stroke="none" transform="matrix(1 0 0 1 20 316 )" />
    <path d="M 0 34  L 0 0  L 90.2266500622665 0  L 205.686939182453 0  L 1842 0  L 1842 34  L 0 34  Z " stroke-width="2" stroke="#797979" fill="none" transform="matrix(1 0 0 1 20 316 )" mask="url(#clip98)" />
  </g>
</svg>