<?xml version="1.0" encoding="utf-8"?>
<svg version="1.1" xmlns:xlink="http://www.w3.org/1999/xlink" width="1244px" height="34px" xmlns="http://www.w3.org/2000/svg">
  <defs>
    <linearGradient gradientUnits="userSpaceOnUse" x1="622" y1="0" x2="622" y2="34" id="LinearGradient62">
      <stop id="Stop63" stop-color="#168a97" offset="0" />
      <stop id="Stop64" stop-color="#047d8a" offset="1" />
    </linearGradient>
    <mask fill="white" id="clip65">
      <path d="M 0 34  L 0 0  L 138.911266201396 0  L 1244 0  L 1244 34  L 0 34  Z " fill-rule="evenodd" />
    </mask>
  </defs>
  <g transform="matrix(1 0 0 1 -20 -273 )">
    <path d="M 0 34  L 0 0  L 138.911266201396 0  L 1244 0  L 1244 34  L 0 34  Z " fill-rule="nonzero" fill="url(#LinearGradient62)" stroke="none" transform="matrix(1 0 0 1 20 273 )" />
    <path d="M 0 34  L 0 0  L 138.911266201396 0  L 1244 0  L 1244 34  L 0 34  Z " stroke-width="2" stroke="#797979" fill="none" transform="matrix(1 0 0 1 20 273 )" mask="url(#clip65)" />
  </g>
</svg>