<?xml version="1.0" encoding="utf-8"?>
<svg version="1.1" xmlns:xlink="http://www.w3.org/1999/xlink" width="1132px" height="34px" xmlns="http://www.w3.org/2000/svg">
  <defs>
    <linearGradient gradientUnits="userSpaceOnUse" x1="566" y1="0" x2="566" y2="34" id="LinearGradient66">
      <stop id="Stop67" stop-color="#168a97" offset="0" />
      <stop id="Stop68" stop-color="#047d8a" offset="1" />
    </linearGradient>
    <mask fill="white" id="clip69">
      <path d="M 0 34  L 0 0  L 126.404785643071 0  L 1132 0  L 1132 34  L 0 34  Z " fill-rule="evenodd" />
    </mask>
  </defs>
  <g transform="matrix(1 0 0 1 -20 -717 )">
    <path d="M 0 34  L 0 0  L 126.404785643071 0  L 1132 0  L 1132 34  L 0 34  Z " fill-rule="nonzero" fill="url(#LinearGradient66)" stroke="none" transform="matrix(1 0 0 1 20 717 )" />
    <path d="M 0 34  L 0 0  L 126.404785643071 0  L 1132 0  L 1132 34  L 0 34  Z " stroke-width="2" stroke="#797979" fill="none" transform="matrix(1 0 0 1 20 717 )" mask="url(#clip69)" />
  </g>
</svg>