<?xml version="1.0" encoding="utf-8"?>
<svg version="1.1" xmlns:xlink="http://www.w3.org/1999/xlink" width="1018px" height="34px" xmlns="http://www.w3.org/2000/svg">
  <defs>
    <linearGradient gradientUnits="userSpaceOnUse" x1="509" y1="0" x2="509" y2="34" id="LinearGradient70">
      <stop id="Stop71" stop-color="#168a97" offset="0" />
      <stop id="Stop72" stop-color="#047d8a" offset="1" />
    </linearGradient>
    <mask fill="white" id="clip73">
      <path d="M 0 34  L 0 0  L 113.674975074776 0  L 1018 0  L 1018 34  L 0 34  Z " fill-rule="evenodd" />
    </mask>
  </defs>
  <g transform="matrix(1 0 0 1 -20 -1296 )">
    <path d="M 0 34  L 0 0  L 113.674975074776 0  L 1018 0  L 1018 34  L 0 34  Z " fill-rule="nonzero" fill="url(#LinearGradient70)" stroke="none" transform="matrix(1 0 0 1 20 1296 )" />
    <path d="M 0 34  L 0 0  L 113.674975074776 0  L 1018 0  L 1018 34  L 0 34  Z " stroke-width="2" stroke="#797979" fill="none" transform="matrix(1 0 0 1 20 1296 )" mask="url(#clip73)" />
  </g>
</svg>