<?xml version="1.0" encoding="utf-8"?>
<svg version="1.1" xmlns:xlink="http://www.w3.org/1999/xlink" width="403px" height="579px" xmlns="http://www.w3.org/2000/svg">
  <g transform="matrix(1 0 0 1 -1787 -137 )">
    <path d="M 1788 141  A 3 3 0 0 1 1791 138 L 2186 138  A 3 3 0 0 1 2189 141 L 2189 712  A 3 3 0 0 1 2186 715 L 1791 715  A 3 3 0 0 1 1788 712 L 1788 141  Z " fill-rule="nonzero" fill="#ff3399" stroke="none" fill-opacity="0.0980392156862745" />
    <path d="M 1787.5 141  A 3.5 3.5 0 0 1 1791 137.5 L 2186 137.5  A 3.5 3.5 0 0 1 2189.5 141 L 2189.5 712  A 3.5 3.5 0 0 1 2186 715.5 L 1791 715.5  A 3.5 3.5 0 0 1 1787.5 712 L 1787.5 141  Z " stroke-width="1" stroke-dasharray="9,4" stroke="#ff3399" fill="none" stroke-dashoffset="0.5" />
  </g>
</svg>